<?xml version="1.0" encoding="UTF-8" standalone="no"?>
<svg xmlns:dc="http://purl.org/dc/elements/1.1/" xmlns:cc="http://creativecommons.org/ns#" xmlns:rdf="http://www.w3.org/1999/02/22-rdf-syntax-ns#" xmlns:svg="http://www.w3.org/2000/svg" xmlns="http://www.w3.org/2000/svg" xmlns:xlink="http://www.w3.org/1999/xlink" xmlns:sodipodi="http://sodipodi.sourceforge.net/DTD/sodipodi-0.dtd" xmlns:inkscape="http://www.inkscape.org/namespaces/inkscape" height="256" width="256" version="1.1" id="svg2" sodipodi:docname="np-auth-logo_256x256.svg" inkscape:version="0.92.4 (5da689c313, 2019-01-14)" inkscape:export-filename="/home/mzhukov/devel/zeit/nodejs-name-pass-auth/static/images/np-auth-logo_256x256.png" inkscape:export-xdpi="96" inkscape:export-ydpi="96" style="enable-background:new">
  <sodipodi:namedview pagecolor="#ffffff" bordercolor="#666666" borderopacity="1" objecttolerance="10" gridtolerance="10" guidetolerance="10" inkscape:pageopacity="0" inkscape:pageshadow="2" inkscape:window-width="1920" inkscape:window-height="859" id="namedview25" showgrid="false" inkscape:zoom="1.3037281" inkscape:cx="86.344915" inkscape:cy="163.93389" inkscape:window-x="0" inkscape:window-y="0" inkscape:window-maximized="1" inkscape:current-layer="svg2" inkscape:pagecheckerboard="true" />
  <metadata id="metadata13">
    <rdf:RDF>
      <cc:Work rdf:about="">
        <dc:format>image/svg+xml</dc:format>
        <dc:type rdf:resource="http://purl.org/dc/dcmitype/StillImage" />
        <dc:title></dc:title>
      </cc:Work>
    </rdf:RDF>
  </metadata>
  <defs id="defs11">
    <linearGradient id="linearGradient1185">
      <stop id="stop1181" offset="0" style="stop-color:#202080;stop-opacity:0.50196081" />
      <stop style="stop-color:#202080;stop-opacity:0" offset="1" id="stop1183" />
    </linearGradient>
    <linearGradient id="linearGradient1171">
      <stop id="stop1165" offset="0" style="stop-color:#202080;stop-opacity:1" />
      <stop style="stop-color:#202080;stop-opacity:0.25098041" offset="0.26870665" id="stop1173" />
      <stop style="stop-color:#202080;stop-opacity:0.50196081" offset="0.60741556" id="stop1167" />
      <stop id="stop1169" offset="1" style="stop-color:#202080;stop-opacity:0" />
    </linearGradient>
    <linearGradient id="linearGradient1145">
      <stop style="stop-color:#202080;stop-opacity:1" offset="0" id="stop1139" />
      <stop style="stop-color:#202080;stop-opacity:0" offset="1" id="stop1143" />
    </linearGradient>
    <linearGradient id="linearGradient908">
      <stop id="stop906" offset="0" style="stop-color:#00ffff;stop-opacity:0" />
      <stop style="stop-color:#00ffff;stop-opacity:0" offset="0.9507916" id="stop919" />
      <stop id="stop921" offset="0.98668033" style="stop-color:#00ffff;stop-opacity:0.50196081" />
      <stop style="stop-color:#00ffff;stop-opacity:1" offset="0.99008715" id="stop912" />
      <stop id="stop904" offset="1" style="stop-color:#00ffff;stop-opacity:1" />
    </linearGradient>
    <linearGradient id="linearGradient878">
      <stop id="stop876" offset="0" style="stop-color:#202080;stop-opacity:0" />
      <stop style="stop-color:#202080;stop-opacity:0.50196081" offset="0.43490642" id="stop964" />
      <stop id="stop874" offset="1" style="stop-color:#202080;stop-opacity:1" />
    </linearGradient>
    <radialGradient xlink:href="#linearGradient878" id="radialGradient968" cx="512" cy="512" fx="512" fy="512" r="512" gradientUnits="userSpaceOnUse" gradientTransform="matrix(0.984375,0,0,0.984375,8,8.000001)" />
    <radialGradient xlink:href="#linearGradient908" id="radialGradient910" cx="512" cy="512" fx="512" fy="512" r="488" gradientUnits="userSpaceOnUse" />
    <filter style="color-interpolation-filters:sRGB" inkscape:label="Drop Shadow" id="filter938">
      <feFlood flood-opacity="1" flood-color="rgb(255,255,255)" result="flood" id="feFlood928" />
      <feComposite in="flood" in2="SourceGraphic" operator="in" result="composite1" id="feComposite930" />
      <feGaussianBlur in="composite1" stdDeviation="8" result="blur" id="feGaussianBlur932" />
      <feOffset dx="0" dy="0" result="offset" id="feOffset934" />
      <feComposite in="SourceGraphic" in2="offset" operator="over" result="fbSourceGraphic" id="feComposite936" />
      <feColorMatrix result="fbSourceGraphicAlpha" in="fbSourceGraphic" values="0 0 0 -1 0 0 0 0 -1 0 0 0 0 -1 0 0 0 0 1 0" id="feColorMatrix940" />
      <feFlood id="feFlood942" flood-opacity="1" flood-color="rgb(255,255,255)" result="flood" />
      <feComposite in2="fbSourceGraphic" id="feComposite944" in="flood" operator="in" result="composite1" />
      <feGaussianBlur id="feGaussianBlur946" in="composite1" stdDeviation="8" result="blur" />
      <feOffset id="feOffset948" dx="0" dy="0" result="offset" />
      <feComposite in2="offset" id="feComposite950" in="fbSourceGraphic" operator="over" result="fbSourceGraphic" />
      <feColorMatrix result="fbSourceGraphicAlpha" in="fbSourceGraphic" values="0 0 0 -1 0 0 0 0 -1 0 0 0 0 -1 0 0 0 0 1 0" id="feColorMatrix952" />
      <feFlood id="feFlood954" flood-opacity="1" flood-color="rgb(255,255,255)" result="flood" />
      <feComposite in2="fbSourceGraphic" id="feComposite956" in="flood" operator="in" result="composite1" />
      <feGaussianBlur id="feGaussianBlur958" in="composite1" stdDeviation="8" result="blur" />
      <feOffset id="feOffset960" dx="0" dy="0" result="offset" />
      <feComposite in2="offset" id="feComposite962" in="fbSourceGraphic" operator="over" result="fbSourceGraphic" />
      <feColorMatrix result="fbSourceGraphicAlpha" in="fbSourceGraphic" values="0 0 0 -1 0 0 0 0 -1 0 0 0 0 -1 0 0 0 0 1 0" id="feColorMatrix1012" />
      <feFlood id="feFlood1014" flood-opacity="1" flood-color="rgb(0,0,0)" result="flood" />
      <feComposite in2="fbSourceGraphic" id="feComposite1016" in="flood" operator="in" result="composite1" />
      <feGaussianBlur id="feGaussianBlur1018" in="composite1" stdDeviation="2" result="blur" />
      <feOffset id="feOffset1020" dx="0" dy="0" result="offset" />
      <feComposite in2="offset" id="feComposite1022" in="fbSourceGraphic" operator="over" result="fbSourceGraphic" />
      <feColorMatrix result="fbSourceGraphicAlpha" in="fbSourceGraphic" values="0 0 0 -1 0 0 0 0 -1 0 0 0 0 -1 0 0 0 0 1 0" id="feColorMatrix1096" />
      <feFlood id="feFlood1098" flood-opacity="0.498039" flood-color="rgb(0,0,0)" result="flood" />
      <feComposite in2="fbSourceGraphic" id="feComposite1100" in="flood" operator="in" result="composite1" />
      <feGaussianBlur id="feGaussianBlur1102" in="composite1" stdDeviation="8" result="blur" />
      <feOffset id="feOffset1104" dx="0" dy="0" result="offset" />
      <feComposite in2="offset" id="feComposite1106" in="fbSourceGraphic" operator="over" result="fbSourceGraphic" />
      <feColorMatrix result="fbSourceGraphicAlpha" in="fbSourceGraphic" values="0 0 0 -1 0 0 0 0 -1 0 0 0 0 -1 0 0 0 0 1 0" id="feColorMatrix1108" />
      <feFlood id="feFlood1110" flood-opacity="0.498039" flood-color="rgb(0,0,0)" result="flood" />
      <feComposite in2="fbSourceGraphic" id="feComposite1112" in="flood" operator="in" result="composite1" />
      <feGaussianBlur id="feGaussianBlur1114" in="composite1" stdDeviation="8" result="blur" />
      <feOffset id="feOffset1116" dx="0" dy="0" result="offset" />
      <feComposite in2="offset" id="feComposite1118" in="fbSourceGraphic" operator="over" result="composite2" />
    </filter>
    <filter style="color-interpolation-filters:sRGB" inkscape:label="Drop Shadow" id="filter1190">
      <feFlood flood-opacity="0.498039" flood-color="rgb(0,0,0)" result="flood" id="feFlood1180" />
      <feComposite in="flood" in2="SourceGraphic" operator="in" result="composite1" id="feComposite1182" />
      <feGaussianBlur in="composite1" stdDeviation="4" result="blur" id="feGaussianBlur1184" />
      <feOffset dx="0" dy="0" result="offset" id="feOffset1186" />
      <feComposite in="SourceGraphic" in2="offset" operator="over" result="fbSourceGraphic" id="feComposite1188" />
      <feColorMatrix result="fbSourceGraphicAlpha" in="fbSourceGraphic" values="0 0 0 -1 0 0 0 0 -1 0 0 0 0 -1 0 0 0 0 1 0" id="feColorMatrix1192" />
      <feFlood id="feFlood1194" flood-opacity="0.498039" flood-color="rgb(0,0,0)" result="flood" />
      <feComposite in2="fbSourceGraphic" id="feComposite1196" in="flood" operator="in" result="composite1" />
      <feGaussianBlur id="feGaussianBlur1198" in="composite1" stdDeviation="4" result="blur" />
      <feOffset id="feOffset1200" dx="0" dy="0" result="offset" />
      <feComposite in2="offset" id="feComposite1202" in="fbSourceGraphic" operator="over" result="fbSourceGraphic" />
      <feColorMatrix result="fbSourceGraphicAlpha" in="fbSourceGraphic" values="0 0 0 -1 0 0 0 0 -1 0 0 0 0 -1 0 0 0 0 1 0" id="feColorMatrix1204" />
      <feFlood id="feFlood1206" flood-opacity="0.498039" flood-color="rgb(0,0,0)" result="flood" />
      <feComposite in2="fbSourceGraphic" id="feComposite1208" in="flood" operator="in" result="composite1" />
      <feGaussianBlur id="feGaussianBlur1210" in="composite1" stdDeviation="4" result="blur" />
      <feOffset id="feOffset1212" dx="0" dy="0" result="offset" />
      <feComposite in2="offset" id="feComposite1214" in="fbSourceGraphic" operator="over" result="fbSourceGraphic" />
      <feColorMatrix result="fbSourceGraphicAlpha" in="fbSourceGraphic" values="0 0 0 -1 0 0 0 0 -1 0 0 0 0 -1 0 0 0 0 1 0" id="feColorMatrix1216" />
      <feFlood id="feFlood1218" flood-opacity="0.498039" flood-color="rgb(0,0,0)" result="flood" />
      <feComposite in2="fbSourceGraphic" id="feComposite1220" in="flood" operator="in" result="composite1" />
      <feGaussianBlur id="feGaussianBlur1222" in="composite1" stdDeviation="4" result="blur" />
      <feOffset id="feOffset1224" dx="0" dy="0" result="offset" />
      <feComposite in2="offset" id="feComposite1226" in="fbSourceGraphic" operator="over" result="fbSourceGraphic" />
      <feColorMatrix result="fbSourceGraphicAlpha" in="fbSourceGraphic" values="0 0 0 -1 0 0 0 0 -1 0 0 0 0 -1 0 0 0 0 1 0" id="feColorMatrix1336" />
      <feFlood id="feFlood1338" flood-opacity="1" flood-color="rgb(255,255,255)" result="flood" />
      <feComposite in2="fbSourceGraphic" id="feComposite1340" in="flood" operator="in" result="composite1" />
      <feGaussianBlur id="feGaussianBlur1342" in="composite1" stdDeviation="4" result="blur" />
      <feOffset id="feOffset1344" dx="0" dy="0" result="offset" />
      <feComposite in2="offset" id="feComposite1346" in="fbSourceGraphic" operator="over" result="fbSourceGraphic" />
      <feColorMatrix result="fbSourceGraphicAlpha" in="fbSourceGraphic" values="0 0 0 -1 0 0 0 0 -1 0 0 0 0 -1 0 0 0 0 1 0" id="feColorMatrix1348" />
      <feFlood id="feFlood1350" flood-opacity="1" flood-color="rgb(255,255,255)" result="flood" />
      <feComposite in2="fbSourceGraphic" id="feComposite1352" in="flood" operator="in" result="composite1" />
      <feGaussianBlur id="feGaussianBlur1354" in="composite1" stdDeviation="4" result="blur" />
      <feOffset id="feOffset1356" dx="0" dy="0" result="offset" />
      <feComposite in2="offset" id="feComposite1358" in="fbSourceGraphic" operator="over" result="fbSourceGraphic" />
      <feColorMatrix result="fbSourceGraphicAlpha" in="fbSourceGraphic" values="0 0 0 -1 0 0 0 0 -1 0 0 0 0 -1 0 0 0 0 1 0" id="feColorMatrix1360" />
      <feFlood id="feFlood1362" flood-opacity="1" flood-color="rgb(255,255,255)" result="flood" />
      <feComposite in2="fbSourceGraphic" id="feComposite1364" in="flood" operator="in" result="composite1" />
      <feGaussianBlur id="feGaussianBlur1366" in="composite1" stdDeviation="4" result="blur" />
      <feOffset id="feOffset1368" dx="0" dy="0" result="offset" />
      <feComposite in2="offset" id="feComposite1370" in="fbSourceGraphic" operator="over" result="fbSourceGraphic" />
      <feColorMatrix result="fbSourceGraphicAlpha" in="fbSourceGraphic" values="0 0 0 -1 0 0 0 0 -1 0 0 0 0 -1 0 0 0 0 1 0" id="feColorMatrix1372" />
      <feFlood id="feFlood1374" flood-opacity="1" flood-color="rgb(255,255,255)" result="flood" />
      <feComposite in2="fbSourceGraphic" id="feComposite1376" in="flood" operator="in" result="composite1" />
      <feGaussianBlur id="feGaussianBlur1378" in="composite1" stdDeviation="4" result="blur" />
      <feOffset id="feOffset1380" dx="0" dy="0" result="offset" />
      <feComposite in2="offset" id="feComposite1382" in="fbSourceGraphic" operator="over" result="composite2" />
    </filter>
    <clipPath clipPathUnits="userSpaceOnUse" id="clipPath933">
      <rect style="fill:none;fill-rule:evenodd;stroke:none;stroke-width:0.81451124" id="rect935" width="834.05951" height="834.05951" x="228.63142" y="89.835945" inkscape:label="backdrop" />
    </clipPath>
    <clipPath clipPathUnits="userSpaceOnUse" id="clipPath937">
      <rect style="fill:none;fill-rule:evenodd;stroke:none" id="rect939" width="1024" height="1024" x="0" y="0" inkscape:label="backdrop" />
    </clipPath>
  </defs>
  <g id="g861" inkscape:label="OT-BackEnd-Data Logo" transform="scale(0.25)">
    <g id="g1001" inkscape:label="OculusThemis Logo" clip-path="url(#clipPath937)">
      <g transform="translate(5.328125,2.453125)" id="g90">
        <circle style="fill:url(#radialGradient968);stroke:#0000ff;stroke-width:16;stroke-linecap:round;stroke-linejoin:round" id="circle82" cx="512" cy="512" r="496.24615" />
        <circle r="458.08286" cy="512" cx="512" id="path844" style="fill:none;stroke:url(#radialGradient910);stroke-width:59.83426285;stroke-linecap:round;stroke-linejoin:round" />
      </g>
      <path id="a" d="m 511.52539,192.01004 -13.5957,19.2168 c -2.83284,3.4328 -4.5332,7.82144 -4.5332,12.62109 0,6.0987 2.7493,11.55057 7.07421,15.19727 10.13666,9.18717 4.8238,17.51329 -6.25976,22.82422 -0.24311,13.6425 0.0693,22.53651 -0.21289,28.36914 -3.95189,2.83701 -7.21882,6.56962 -9.51953,10.89453 -3.8825,0.085 -7.74797,0.45958 -11.31641,0.86328 -52.11802,4.33012 -98.91397,29.14717 -147.84961,45.1582 -24.4313,8.06552 -51.17349,10.53946 -76.01172,2.78906 -2.96536,-0.92289 -6.05279,-1.84715 -9.14648,-2.85351 l -3.32617,-9.21289 c 0.69439,-0.11211 1.38378,-0.26942 2.05468,-0.50586 12.93821,-2.05447 17.13835,-19.10964 9.50586,-28.72461 -11.85308,-17.43528 -38.53737,-15.77084 -52.84765,-2.39649 -13.59034,10.3871 -13.61654,31.63958 -2.20118,43.60743 6.74561,7.28817 14.86226,12.62087 23.68946,16.66406 l -97.97461,273.11133 -22.58008,-0.0176 c 6.57344,3.8752 12.30763,8.27445 18.35937,11.18555 53.57879,31.01518 119.46882,37.2649 179.25586,21.66601 28.38059,-8.07595 50.28712,-17.30443 73.35157,-32.70508 l -22.1875,-0.0156 -94.48047,-263.09375 c 4.11206,0.80133 8.21138,1.51842 12.24414,2.18359 44.3864,6.17695 86.13202,-13.29736 126.87695,-27.86328 30.28479,-11.13834 61.71868,-20.40849 94.2207,-21.01367 v 0.0977 c 2.35236,4.74018 5.84702,8.81006 10.14063,11.83593 v 367.64453 c 0,70.06461 -66.09842,82.95118 -79.71484,82.95118 -13.57468,0 -26.2168,6.35323 -26.2168,16.67773 -27.72846,0.83313 -60.62046,0 -81.33203,0 -20.72721,0 -36.22656,5.95839 -36.22656,23.13281 80.23766,0.60022 160.5256,0.25303 240.76367,0.3418 84.0695,-0.23286 169.68237,0.16608 241.70508,-0.3418 0,-17.17442 -15.49938,-23.13281 -36.22657,-23.13281 -20.71157,0 -53.60552,0.83313 -81.33398,0 0,-10.3245 -12.64017,-16.67773 -26.21484,-16.67773 -13.61643,0 -79.7168,-12.88657 -79.7168,-82.95118 v -367.64453 c 4.29361,-3.02587 7.79022,-7.09575 10.14258,-11.83593 v -0.0977 c 32.50203,0.60518 63.93396,9.87533 94.21875,21.01367 40.74493,14.56592 82.49247,34.04023 126.8789,27.86328 4.03273,-0.66517 8.13209,-1.38226 12.24414,-2.18359 l -94.48047,263.09375 -22.1875,0.0156 c 23.06445,15.40065 44.96904,24.62913 73.34961,32.70508 59.78704,15.59889 125.679,9.34917 179.25782,-21.66601 6.05175,-2.9111 11.7859,-7.31035 18.35937,-11.18555 l -22.58008,0.0176 -97.97656,-273.11133 c 8.82719,-4.04319 16.9458,-9.37589 23.69141,-16.66406 11.41533,-11.96785 11.38917,-33.22033 -2.20117,-43.60743 -14.31025,-13.37435 -40.99459,-15.03879 -52.84766,2.39649 -7.63251,9.61497 -3.4343,26.67014 9.5039,28.72461 0.67087,0.23644 1.36031,0.39375 2.05469,0.50586 l -3.32422,9.21289 c -3.09371,1.00636 -6.18112,1.93062 -9.14648,2.85351 -24.83824,7.7504 -51.58041,5.27646 -76.01172,-2.78906 -48.93564,-16.01103 -95.73159,-40.82808 -147.84961,-45.1582 -3.56844,-0.4037 -7.43391,-0.77828 -11.3164,-0.86328 -2.30072,-4.32491 -5.5696,-8.05752 -9.52149,-10.89453 -0.28221,-5.83263 0.0322,-14.72664 -0.21094,-28.36914 -11.08356,-5.31093 -16.39838,-13.63705 -6.26172,-22.82422 4.32491,-3.6467 7.07422,-9.09857 7.07422,-15.19727 0,-4.79965 -1.69841,-9.18829 -4.53125,-12.62109 l -13.5957,-19.2168 -0.47461,-0.67187 z m -283.32617,119.01367 c 2.22924,-0.004 4.97862,0.43355 6.94336,1.51953 9.05152,3.57575 6.79358,16.85629 -1.31836,17.14844 -0.51481,-1.2886 -0.14855,-2.62271 -1.5332,-2.90234 -1.27869,-0.25872 -1.74876,1.25952 -2.10352,2.18554 -0.67143,-0.28083 -1.48868,-0.50467 -2.19141,-0.9707 -8.34724,-5.99435 5.05206,-14.47182 -5.41015,-11.45117 -10.55403,6.77169 -3.11228,15.92183 5.20312,19.85547 l -1.77734,4.9414 c -5.05321,-2.75876 -9.5207,-6.32316 -12.73438,-11.26367 -5.03547,-9.79757 5.25932,-19.04294 14.91602,-19.05859 z m 567.60156,0 0.006,0.004 c 9.65672,0.0156 19.95146,9.26102 14.91602,19.05859 -3.2137,4.94051 -7.68117,8.50491 -12.73438,11.26367 l -1.77734,-4.9414 c 8.31541,-3.93364 15.75715,-13.08378 5.20312,-19.85547 -10.46221,-3.02065 2.93708,5.45682 -5.41015,11.45117 -0.70275,0.46603 -1.52192,0.68987 -2.19336,0.9707 -0.35475,-0.92602 -0.82292,-2.44426 -2.10156,-2.18554 -1.38469,0.27963 -1.01839,1.61374 -1.53321,2.90234 -8.1119,-0.29215 -10.37185,-13.57269 -1.32031,-17.14844 1.96473,-1.08598 4.7161,-1.52353 6.94531,-1.51953 z m -565.82422,26.24805 0.88086,0.25977 v 6.14648 l -2.74023,-1.25586 z m 564.04688,0 1.85742,5.15039 -2.73828,1.25586 v -6.14648 z m -560.81836,0.70117 1.18945,0.0801 2.91797,8.11914 -4.10742,-1.51758 z m 557.58984,0 v 6.68164 l -4.10937,1.51758 2.91992,-8.11914 z m -571.67578,29.52149 c 3.81781,1.6397 7.74724,3.0521 11.75391,4.28906 l 0.11328,267.89258 -109.55664,-0.0488 z m 585.76172,0 97.68945,272.13281 -109.55859,0.0488 0.11523,-267.89258 c 4.00665,-1.23696 7.93608,-2.64936 11.75391,-4.28906 z m -571.67578,4.97265 14.85156,3.61914 94.74219,263.66992 -109.40039,-0.0508 -0.22852,-0.83008 z m 557.58984,0 0.0352,266.4082 -0.22852,0.83008 -109.40039,0.0508 94.74024,-263.66992 z" style="fill:#ffffff;stroke:#000000;stroke-width:2" inkscape:connector-curvature="0" />
      <rect style="fill:none;fill-rule:evenodd" id="rect4685" width="1024" height="1024" x="0" y="0" inkscape:label="backdrop" />
    </g>
    <text xml:space="preserve" style="font-size:40px;line-height:1.25;font-family:'Noto Sans';-inkscape-font-specification:'Noto Sans';letter-spacing:0px;word-spacing:0px;fill:#000000;stroke-width:4;filter:url(#filter938)" x="252.85637" y="887.67499" id="text852" inkscape:label="auth:NP" clip-path="url(#clipPath933)" transform="matrix(1.2277301,0,0,1.2277301,-280.69768,-110.29429)"><tspan id="tspan850" x="252.85637" y="887.67499" style="font-weight:500;font-size:237.54766846px;font-family:'Blogger Sans Medium';-inkscape-font-specification:'Blogger Sans Medium, Medium';fill:#ff0000;stroke:#000000">auth:NP</tspan></text>
  </g>
</svg>
