<?xml version="1.0" encoding="UTF-8" standalone="no"?>
<svg xmlns:dc="http://purl.org/dc/elements/1.1/" xmlns:cc="http://creativecommons.org/ns#" xmlns:rdf="http://www.w3.org/1999/02/22-rdf-syntax-ns#" xmlns:svg="http://www.w3.org/2000/svg" xmlns="http://www.w3.org/2000/svg" xmlns:sodipodi="http://sodipodi.sourceforge.net/DTD/sodipodi-0.dtd" xmlns:inkscape="http://www.inkscape.org/namespaces/inkscape" inkscape:export-ydpi="96" inkscape:export-xdpi="96" inkscape:export-filename="/home/mzhukov/Изображения/logos/Jobs/node-centric-tests_passport-logo_1024x1024.png" inkscape:version="0.92.3 (2405546, 2018-03-11)" sodipodi:docname="node-centric-tests_passport-logo_1024x1024.svg" id="svg6" preserveAspectRatio="xMidYMid" version="1.1" viewBox="0 0 1024 1024" height="1024" width="1024">
  <metadata id="metadata12">
    <rdf:RDF>
      <cc:Work rdf:about="">
        <dc:format>image/svg+xml</dc:format>
        <dc:type rdf:resource="http://purl.org/dc/dcmitype/StillImage" />
        <dc:title />
      </cc:Work>
    </rdf:RDF>
  </metadata>
  <defs id="defs10">
    <inkscape:path-effect effect="simplify" id="path-effect3327" is_visible="true" steps="10" threshold="0.001" smooth_angles="10" helper_size="5" simplify_individual_paths="true" simplify_just_coalesce="false" />
    <inkscape:path-effect effect="transform_2pts" start="-352.13135,76.60828" end="-352.13139,76.60828" id="path-effect3325" is_visible="true" first_knot="1" last_knot="40" helper_size="3" stretch="1" offset="0" elastic="false" from_original_width="false" flip_vertical="false" flip_horizontal="false" lock_lenght="false" lock_angle="false" />
    <inkscape:path-effect effect="curvestitching" id="path-effect3323" is_visible="true" count="16" startpoint_edge_variation="0;1" startpoint_spacing_variation="0;1" endpoint_edge_variation="0;1" endpoint_spacing_variation="0;1" strokepath="m -433.84662,14.619581 h 85.96527" prop_scale="1" scale_y_rel="false" />
    <inkscape:path-effect effect="interpolate" id="path-effect3321" is_visible="true" trajectory="m 0,0 v 0" equidistant_spacing="true" steps="64" />
    <inkscape:path-effect effect="interpolate_points" id="path-effect3319" is_visible="false" interpolator_type="CubicBezierFit" />
    <inkscape:path-effect effect="fill_between_many" id="path-effect3317" is_visible="true" linkedpaths="" allow_transforms="true" />
    <filter style="color-interpolation-filters:sRGB" inkscape:label="Drop Shadow" id="filter1503">
      <feFlood flood-opacity="1" flood-color="rgb(0,0,0)" result="flood" id="feFlood1493" />
      <feComposite in="flood" in2="SourceGraphic" operator="in" result="composite1" id="feComposite1495" />
      <feGaussianBlur in="composite1" stdDeviation="16" result="blur" id="feGaussianBlur1497" />
      <feOffset dx="32" dy="32" result="offset" id="feOffset1499" />
      <feComposite in="SourceGraphic" in2="offset" operator="over" result="composite2" id="feComposite1501" />
    </filter>
    <filter style="color-interpolation-filters:sRGB" inkscape:label="Drop Shadow" id="filter7174">
      <feFlood flood-opacity="1" flood-color="rgb(0,0,0)" result="flood" id="feFlood7164" />
      <feComposite in="flood" in2="SourceGraphic" operator="in" result="composite1" id="feComposite7166" />
      <feGaussianBlur in="composite1" stdDeviation="4" result="blur" id="feGaussianBlur7168" />
      <feOffset dx="8" dy="8" result="offset" id="feOffset7170" />
      <feComposite in="SourceGraphic" in2="offset" operator="over" result="composite2" id="feComposite7172" />
    </filter>
    <filter style="color-interpolation-filters:sRGB" inkscape:label="Drop Shadow" id="filter1128">
      <feFlood flood-opacity="1" flood-color="rgb(82,255,255)" result="flood" id="feFlood1118" />
      <feComposite in="flood" in2="SourceGraphic" operator="in" result="composite1" id="feComposite1120" />
      <feGaussianBlur in="composite1" stdDeviation="32" result="blur" id="feGaussianBlur1122" />
      <feOffset dx="0" dy="0" result="offset" id="feOffset1124" />
      <feComposite in="SourceGraphic" in2="offset" operator="over" result="fbSourceGraphic" id="feComposite1126" />
      <feColorMatrix result="fbSourceGraphicAlpha" in="fbSourceGraphic" values="0 0 0 -1 0 0 0 0 -1 0 0 0 0 -1 0 0 0 0 1 0" id="feColorMatrix1130" />
      <feFlood id="feFlood1132" flood-opacity="1" flood-color="rgb(82,255,255)" result="flood" />
      <feComposite in2="fbSourceGraphic" id="feComposite1134" in="flood" operator="in" result="composite1" />
      <feGaussianBlur id="feGaussianBlur1136" in="composite1" stdDeviation="32" result="blur" />
      <feOffset id="feOffset1138" dx="0" dy="0" result="offset" />
      <feComposite in2="offset" id="feComposite1140" in="fbSourceGraphic" operator="over" result="composite2" />
    </filter>
  </defs>
  <sodipodi:namedview inkscape:current-layer="svg6" inkscape:window-maximized="1" inkscape:window-y="0" inkscape:window-x="0" inkscape:cy="484.30222" inkscape:cx="231.44309" inkscape:zoom="0.4083045" inkscape:pagecheckerboard="true" showgrid="false" id="namedview8" inkscape:window-height="859" inkscape:window-width="1920" inkscape:pageshadow="2" inkscape:pageopacity="0" guidetolerance="10" gridtolerance="10" objecttolerance="10" borderopacity="1" bordercolor="#666666" pagecolor="#ffffff" />
  <g id="g1351">
    <g transform="matrix(3.96,0,0,3.96,1.2009614,-3035.7273)" id="g7209">
      <g id="g4" transform="matrix(0.8874598,0,0,0.8874598,14.405146,768)" inkscape:label="node">
        <path d="m 128,288.46377 c -3.97516,0 -7.6853,-1.06004 -11.13044,-2.91511 l -35.246372,-20.93582 c -5.300208,-2.91512 -2.650103,-3.97516 -1.060042,-4.50518 7.15528,-2.38509 8.480331,-2.91511 15.900623,-7.15528 0.795029,-0.53002 1.855071,-0.26501 2.650103,0.26501 l 27.031058,16.16563 c 1.06004,0.53002 2.38509,0.53002 3.18012,0 l 105.73913,-61.21739 c 1.06004,-0.53002 1.59006,-1.59006 1.59006,-2.91511 v -122.169773 c 0,-1.325054 -0.53002,-2.385094 -1.59006,-2.915115 l -105.73913,-60.952381 c -1.06004,-0.530021 -2.38509,-0.530021 -3.18012,0 l -105.739135,60.952381 c -1.06004,0.530021 -1.59006,1.855072 -1.59006,2.915115 v 122.169773 c 0,1.06004 0.53002,2.38509 1.59006,2.91511 l 28.88613,16.69566 c 15.635611,7.9503 25.440995,-1.32506 25.440995,-10.60042 v -120.579711 c 0,-1.590061 1.325051,-3.180123 3.180123,-3.180123 h 13.515529 c 1.590062,0 3.180123,1.325051 3.180123,3.180123 v 120.579711 c 0,20.93582 -11.395444,33.12629 -31.271221,33.12629 -6.095238,0 -10.865424,0 -24.380953,-6.62525 l -27.826086,-15.90062 c -6.8902692,-3.97516 -11.130435,-11.39545 -11.130435,-19.34576 v -122.169774 c 0,-7.950309 4.2401658,-15.370601 11.130435,-19.345755 l 105.739125,-61.2173935 c 6.62526,-3.71014334 15.63562,-3.71014334 22.26088,0 l 105.73912,61.2173935 c 6.89027,3.975154 11.13044,11.395446 11.13044,19.345755 v 122.169774 c 0,7.95031 -4.24017,15.3706 -11.13044,19.34576 l -105.73912,61.21739 c -3.44514,1.59006 -7.4203,2.38509 -11.13044,2.38509 z m 32.59627,-84.00828 c -46.37681,0 -55.91718,-21.20083 -55.91718,-39.22154 0,-1.59006 1.32505,-3.18012 3.18012,-3.18012 h 13.78054 c 1.59006,0 2.91511,1.06004 2.91511,2.6501 2.12009,14.04555 8.21533,20.93582 36.30642,20.93582 22.26087,0 31.80125,-5.03519 31.80125,-16.96066 0,-6.89027 -2.65011,-11.92547 -37.36647,-15.3706 -28.88612,-2.91512 -46.90682,-9.27536 -46.90682,-32.33126 0,-21.465843 18.0207,-34.18634 48.23188,-34.18634 33.92132,0 50.61697,11.660457 52.73706,37.10145 0,0.79503 -0.26501,1.59006 -0.79503,2.38509 -0.53002,0.53002 -1.32506,1.06004 -2.12009,1.06004 h -13.78053 c -1.32506,0 -2.65011,-1.06004 -2.91512,-2.38509 -3.18012,-14.57557 -11.39544,-19.34576 -33.12629,-19.34576 -24.38096,0 -27.29607,8.48034 -27.29607,14.84058 0,7.68531 3.44514,10.0704 36.30642,14.31057 32.59627,4.24016 47.96687,10.3354 47.96687,33.12629 -0.26501,23.32091 -19.34575,36.57143 -53.00207,36.57143 z" id="path2" inkscape:connector-curvature="0" style="fill:#539e43" />
      </g>
      <g transform="matrix(0.192,0,0,0.192,3.68,773.6)" style="fill:none;fill-rule:evenodd;filter:url(#filter1503)" id="Page-1" inkscape:label="passport">
        <g transform="translate(-400,-350)" id="passport_logo_final">
          <g id="Group">
            <g id="Shape">
              <g id="g16" transform="translate(400,350)">
                <path style="fill:#d6ff00" inkscape:connector-curvature="0" id="path8" d="m 200,0 c -110.5,0 -200,89.5 -200,200 h 100 c 0,-55.2 44.8,-100 100,-100 z" />
                <path style="fill:#34e27a" inkscape:connector-curvature="0" id="path10" d="m 400,200 c 0,-110.5 -89.5,-200 -200,-200 v 100 c 55.2,0 100,44.8 100,100 z" />
                <path style="fill:#00b9f1" inkscape:connector-curvature="0" id="path12" d="m 200,400 c 110.5,0 200,-89.5 200,-200 h -100 c 0,55.2 -44.8,100 -100,100 z" />
                <path style="fill:#ffffff" inkscape:connector-curvature="0" id="path14" d="m 100,400 v -200 h -100 v 300 h 200 v -100 z" />
              </g>
            </g>
          </g>
        </g>
      </g>
      <g id="g1815" inkscape:label="connect" transform="matrix(0.73156503,0,0,0.73156503,432.93226,960.51366)" style="filter:url(#filter7174)">
        <path style="fill:#1587df" d="m -334.59145,75.75847 h -2.2899 v -17.5 -17.5 h -6.68428 c -4.7037,0 -7.9442,-0.60992 -10.93642,-2.05843 -2.33869,-1.13214 -5.90053,-3.88299 -7.91521,-6.113 -2.01468,-2.23001 -4.5084,-5.91621 -5.54161,-8.19156 -1.03876,-2.28759 -1.88837,-6.42779 -1.90052,-9.26128 -0.0121,-2.81835 0.64742,-7.0215 1.46555,-9.34033 0.81813,-2.31883 2.89901,-5.99822 4.62418,-8.17642 1.72517,-2.1782 5.44329,-5.28333 8.26249,-6.90029 4.27534,-2.45213 6.24578,-2.94148 11.87582,-2.94931 l 6.75,-0.009 v -17 -17 l 3.25,0.02445 c 1.7875,0.01345 5.275,0.487811 7.75,1.054146 2.475,0.566335 7.78072,2.669282 11.79049,4.673215 4.34864,2.173287 9.84171,6.085749 13.61293,9.695854 3.47734,3.328786 8.1574,8.893253 10.40012,12.365481 2.24272,3.472227 4.81548,8.534488 5.71725,11.249458 0.90177,2.71498 2.60363,5.61157 3.7819,6.43686 1.49232,1.04526 4.69383,1.50054 10.55178,1.50054 6.68857,0 9.07751,0.41288 11.67403,2.01761 1.79551,1.10969 3.98612,3.11885 4.86803,4.46482 0.97657,1.49043 1.60347,4.58128 1.60347,7.90566 0,4.4296 -0.49367,6.04516 -2.61912,8.5711 -1.44051,1.71196 -3.89316,3.77148 -5.45034,4.57673 -1.82078,0.94156 -5.80311,1.46408 -11.15837,1.46408 -5.91826,0 -8.97009,0.45033 -10.54966,1.5567 -1.22238,0.85619 -2.22251,2.0526 -2.22251,2.6587 0,0.60609 -1.6875,4.51808 -3.75,8.6933 -2.70443,5.47471 -5.86974,9.72794 -11.35259,15.25449 -5.32655,5.36902 -9.74251,8.74084 -14.75056,11.26286 -3.93138,1.97981 -9.71726,4.26887 -12.85751,5.0868 -3.14025,0.81793 -6.73999,1.48715 -7.99944,1.48715 z" id="path1819" inkscape:connector-curvature="0" inkscape:label="connect-right" />
        <path style="fill:#095497" d="m -352.13135,76.60828 c -4.52224,-0.290399 -9.26099,-0.304315 -13.40891,-2.322143 -3.31537,-1.61282 -6.31714,-3.764723 -9.39205,-5.77944 -7.51679,-4.925097 -14.39847,-10.970614 -19.59585,-18.364347 -3.08634,-4.390589 -6.11612,-8.912143 -8.07867,-13.910827 -0.78577,-2.00138 -2.11768,-3.959098 -4.20739,-4.745285 -2.12847,-0.80077 -4.4484,-0.705797 -6.68274,-0.725883 -3.66929,-0.03299 -7.53715,0.379168 -10.97753,-1.057905 -3.3017,-1.379146 -6.15821,-3.869182 -7.91669,-6.927286 -1.57358,-2.736549 -1.56471,-6.010355 -1.44503,-9.061043 0.0786,-2.00407 0.0351,-4.1250141 0.89827,-5.967819 1.17127,-2.5006091 3.37544,-4.3487855 5.68536,-5.7514904 2.24001,-1.36024957 4.85975,-1.87029649 7.44445,-2.08017009 4.33368,-0.35188799 8.92255,0.45568584 13.0034,-1.22170311 2.1933,-0.9015315 3.40635,-3.0962706 4.42467,-5.1052061 1.29208,-2.548996 1.93169,-5.3616193 2.99883,-8.0005343 1.84334,-4.558374 4.87436,-8.530712 8.19687,-12.105785 3.68905,-3.969471 7.76967,-7.584117 12.17203,-10.739003 6.25568,-4.483042 13.45919,-7.659165 21.0464,-9.068799 2.85898,-0.531172 5.7535,-0.852997 8.65361,-1.050137 0.89545,-0.609575 1.8024,0.542997 1.57832,1.379187 -0.26741,0.997891 -0.14735,2.053336 -0.14735,3.084444 0,6.261275 0,12.522551 0,18.783826 -4.97833,2.212774 -10.30385,3.810478 -14.84281,6.85911 -7.24956,4.869231 -12.87156,12.1172472 -15.68536,20.4474639 -1.50428,4.4534063 -2.85356,9.1753041 -2.20314,13.9080701 0.40574,2.952366 1.24946,5.82355 2.13495,8.659669 1.24891,4.00012 3.23703,7.753867 5.8333,11.049735 4.16965,5.293225 9.81231,9.168995 15.63019,12.454735 2.98777,1.687391 6.05381,3.230797 9.13283,4.743456 0,7.588433 0,15.176867 0,22.7653 -1.41665,-0.05006 -2.83331,-0.100124 -4.24996,-0.15019 z" id="path1817" inkscape:connector-curvature="0" inkscape:label="connect-left" inkscape:path-effect="#path-effect3327" inkscape:original-d="m -352.13135,76.60828 c -2.3375,-0.0826 -6.05,-0.42011 -8.25,-0.75 -2.2,-0.3299 -5.35,-1.46569 -7,-2.52398 -1.65,-1.0583 -5.475,-3.50951 -8.5,-5.44715 -3.025,-1.93763 -8.11977,-6.00853 -11.3217,-9.04644 -3.31846,-3.14845 -7.94079,-9.12389 -10.75,-13.89685 -2.71056,-4.60536 -4.9283,-8.78109 -4.9283,-9.27939 0,-0.4983 -0.9,-1.806 -2,-2.906 -1.67208,-1.67208 -3.33333,-2 -10.13197,-2 -6.29724,0 -8.83878,-0.43684 -11.26474,-1.93616 -1.72303,-1.06489 -4.13865,-3.29667 -5.36804,-4.95951 -1.76954,-2.39343 -2.22776,-4.33397 -2.19929,-9.31384 0.0286,-5.00059 0.48997,-6.82992 2.25,-8.92112 1.21772,-1.44685 3.65419,-3.35935 5.41438,-4.25 2.04277,-1.03364 5.73319,-1.61937 10.20295,-1.61937 3.85143,0 8.1185,-0.50844 9.48238,-1.12986 1.49761,-0.68236 3.29855,-3.03317 4.54705,-5.93538 1.137,-2.64304 2.06728,-5.22792 2.06728,-5.74419 0,-0.516265 1.11242,-2.929003 2.47205,-5.36164 1.35963,-2.432636 4.94803,-6.918788 7.97424,-9.969226 3.02621,-3.050439 8.22785,-7.416733 11.5592,-9.702877 3.33135,-2.286145 8.85544,-5.104701 12.27576,-6.26346 3.42031,-1.158758 8.80625,-2.346303 11.96875,-2.638989 l 5.75,-0.532155 v 11.695119 11.695119 l -4.75,2.014462 c -2.6125,1.107954 -6.31074,2.770151 -8.21832,3.69377 -1.90758,0.923619 -5.6479,3.823202 -8.31183,6.443517 -2.66393,2.62032 -5.95664,7.19561 -7.31713,10.16732 -1.3605,2.97171 -2.99853,7.9056 -3.64008,10.96419 -0.87144,4.15461 -0.88286,6.76789 -0.0452,10.33268 0.61671,2.62438 1.72007,6.4836 2.45191,8.57604 0.73183,2.09244 2.91827,5.91744 4.85875,8.5 1.94048,2.58256 5.99048,6.37938 9,8.43738 3.00952,2.05801 7.83436,4.92332 10.72186,6.36735 l 5.25,2.62553 v 11.38265 11.38265 l -4.25,-0.15019 z" />
      </g>
    </g>
    <text id="text846" y="753.91998" x="220.77441" style="font-size:64px;line-height:1.25;font-family:sans-serif;letter-spacing:0px;word-spacing:0px;fill:#000080;stroke:#ffffff;stroke-width:16;filter:url(#filter1128)" xml:space="preserve"><tspan style="font-size:921.59997559px;font-family:'Noto Sans Display';-inkscape-font-specification:'Noto Sans Display'" y="753.91998" x="220.77441" id="tspan848" sodipodi:role="line">β</tspan></text>
  </g>
</svg>
